<svg xmlns="http://www.w3.org/2000/svg" width="1000" height="1000" viewBox="0 0 1000 1000" version="1.1">
	<path d="M 491.799 243.534 C 491.505 243.828, 488.426 244.526, 484.955 245.085 C 481.485 245.643, 478.163 246.404, 477.573 246.775 C 476.983 247.146, 475.733 247.324, 474.796 247.170 C 472.817 246.845, 465.096 249.334, 460.016 251.936 C 458.082 252.926, 452.734 255.646, 448.131 257.979 C 436.685 263.782, 428.899 269.392, 420.146 278.146 C 411.877 286.414, 399.552 303.522, 397.025 310.238 C 396.350 312.032, 395.426 314.400, 394.970 315.500 C 391.413 324.092, 388.389 335.317, 386.064 348.560 C 385.444 352.093, 385.006 369.402, 385.015 390.060 C 385.030 427.267, 385.579 432.571, 389.744 435.750 C 392.142 437.580, 617.858 437.580, 620.256 435.750 C 624.421 432.571, 624.970 427.267, 624.985 390.060 C 625 354.307, 624.737 350.733, 620.823 333.500 C 617.062 316.944, 608.590 299.607, 598.342 287.500 C 589.160 276.652, 586.651 274, 585.569 274 C 584.922 274, 582.842 272.390, 580.946 270.421 C 576.527 265.832, 561.531 256.525, 552.507 252.771 C 542.564 248.634, 538.521 247.425, 530 246.039 C 525.875 245.368, 521.466 244.410, 520.203 243.910 C 517.780 242.950, 492.715 242.619, 491.799 243.534 M 492.500 254.960 C 491.400 255.455, 489.182 255.891, 487.571 255.930 C 485.960 255.968, 483.260 256.417, 481.571 256.928 C 479.882 257.438, 475.125 258.872, 471 260.115 C 448.494 266.895, 425.353 284.818, 413.222 304.864 C 404.763 318.842, 401.260 328.179, 397.789 346 C 396.664 351.778, 395.517 418.328, 396.453 423.500 L 396.997 426.500 504.982 426.241 L 612.966 425.982 613.519 423.741 C 614.478 419.849, 613.332 351.755, 612.211 346 C 607.090 319.714, 598.494 302.796, 581.811 286.172 C 570.083 274.485, 561.752 269.181, 541.510 260.512 C 539.316 259.573, 535.266 258.378, 532.510 257.858 C 529.755 257.338, 525.475 256.436, 523 255.854 C 517.070 254.458, 495.050 253.813, 492.500 254.960 M 502.500 291 C 501.400 291.473, 498.594 291.891, 496.264 291.930 C 489.488 292.042, 483.166 293.904, 473 298.780 C 465.169 302.537, 461.961 304.835, 454.735 311.864 C 444.920 321.413, 440.824 327.777, 436.949 339.500 C 432.262 353.679, 432 355.933, 432 382.060 L 432 407.091 434.455 409.545 L 436.909 412 505 412 L 573.091 412 575.545 409.545 L 578 407.091 578 382.060 C 578 357.867, 577.569 353.154, 574.473 343.500 C 573.767 341.300, 572.894 338.150, 572.533 336.500 C 569.895 324.450, 545.818 299.954, 532.509 295.778 C 525.287 293.512, 522.056 292.826, 515 292.058 C 510.875 291.609, 506.825 290.994, 506 290.691 C 505.175 290.388, 503.600 290.527, 502.500 291 M 502 302.011 C 500.625 302.445, 498.017 302.845, 496.204 302.900 C 491.601 303.040, 477.081 307.864, 473.644 310.396 C 467.926 314.609, 456.740 325.606, 453.905 329.802 C 444.826 343.237, 443.082 351.172, 443.036 379.250 L 443 401 505 401 L 567 401 566.964 379.250 C 566.940 364.109, 566.507 355.829, 565.540 352 C 562.909 341.575, 562.829 341.382, 556.225 329.431 C 553.907 325.236, 543.337 315.290, 536.364 310.741 C 529.542 306.291, 524.987 304.732, 513.500 302.916 C 510.200 302.394, 506.825 301.799, 506 301.594 C 505.175 301.389, 503.375 301.576, 502 302.011 M 429 451 C 427.025 452.975, 427 454.333, 427 561 C 427 667.667, 427.025 669.025, 429 671 C 430.964 672.964, 432.333 673, 506 673 C 579.667 673, 581.036 672.964, 583 671 C 584.975 669.025, 585 667.667, 585 561 C 585 454.333, 584.975 452.975, 583 451 C 581.036 449.036, 579.667 449, 506 449 C 432.333 449, 430.964 449.036, 429 451 M 621 449.987 C 613.762 450.965, 609.481 452.416, 604.913 455.439 C 600.748 458.195, 596 463.898, 596 466.144 C 596 466.945, 595.519 468.081, 594.931 468.669 C 594.225 469.375, 594.076 473.266, 594.493 480.119 C 594.840 485.829, 595.448 547.425, 595.843 617 C 596.332 703.008, 596.909 744.659, 597.647 747.122 C 605.932 774.786, 637.005 788.008, 661.896 774.460 C 668.850 770.675, 676.870 761.861, 681.089 753.367 L 684.500 746.500 684.500 615.500 C 684.500 475.502, 684.781 483.771, 679.650 473 C 676.540 466.472, 668.162 458.465, 660.793 454.979 C 657.332 453.341, 653.683 452.001, 652.684 452.001 C 651.686 452, 650.111 451.608, 649.184 451.129 C 646.781 449.887, 627.522 449.106, 621 449.987 M 346.802 453.505 C 332.269 456.681, 322.536 469.410, 324.502 482.669 C 324.896 485.326, 325.542 542.850, 325.938 610.500 C 326.406 690.585, 327.022 734.896, 327.703 737.500 C 330.429 747.920, 333.663 753.634, 341 760.994 C 349.035 769.054, 357.388 773.303, 368.291 774.876 C 379.785 776.534, 518.084 776.328, 527.511 774.638 C 545.282 771.453, 558.743 758.584, 562.902 740.807 C 567.811 719.823, 554.986 697.353, 533.721 689.682 C 531.480 688.873, 512.852 688.365, 472.500 688.010 L 414.500 687.500 413.946 589 C 413.562 520.896, 413.048 489.420, 412.279 487 C 411.667 485.075, 410.688 481.962, 410.105 480.082 C 408.782 475.824, 404.791 469.725, 400.555 465.489 C 396.808 461.742, 387.274 456.565, 381.500 455.143 C 379.300 454.602, 375.648 453.673, 373.384 453.079 C 368.075 451.687, 354.097 451.911, 346.802 453.505 M 438.464 461.243 C 438.200 461.934, 438.100 507.275, 438.242 562 L 438.500 661.500 506 661.500 L 573.500 661.500 573.500 561 L 573.500 460.500 506.221 460.243 C 452.929 460.039, 438.843 460.247, 438.464 461.243 M 617.357 469.387 C 612.446 472.116, 612 473.004, 612 480.063 C 612 483.814, 612.450 487.160, 613 487.500 C 613.658 487.907, 614 530.828, 614 613.012 C 614 704.232, 614.308 738.660, 615.141 740.703 C 618.285 748.415, 619.297 749.992, 624.186 754.805 C 627.335 757.905, 630.354 760, 631.673 760 C 632.888 760, 634.160 760.450, 634.500 761 C 634.840 761.550, 637.315 762, 640 762 C 642.685 762, 645.160 761.550, 645.500 761 C 645.840 760.450, 646.922 760, 647.905 760 C 652.627 760, 664 750.149, 664 746.059 C 664 745.147, 664.563 743.838, 665.250 743.150 C 666.237 742.163, 666.500 715.127, 666.500 614.700 C 666.500 471.767, 667.196 484.283, 658.811 476.498 C 653.757 471.805, 650.773 470, 648.073 470 C 646.998 470, 645.840 469.550, 645.500 469 C 644.610 467.559, 620.038 467.897, 617.357 469.387 M 350.500 471 C 350.160 471.550, 349.039 472, 348.009 472 C 345.008 472, 342 477.179, 342 482.345 C 342 484.840, 342.450 487.160, 343 487.500 C 343.658 487.907, 344 529.824, 344 610 C 344 690.176, 344.342 732.093, 345 732.500 C 345.550 732.840, 346 734.147, 346 735.405 C 346 738.932, 348.584 743.321, 353.632 748.368 C 358.887 753.623, 363.079 756, 367.095 756 C 368.628 756, 370.160 756.450, 370.500 757 C 370.903 757.653, 397.824 758, 448 758 C 498.176 758, 525.097 757.653, 525.500 757 C 525.840 756.450, 526.998 756, 528.073 756 C 532.342 756, 540.278 749.467, 542.650 744 C 543.485 742.075, 544.580 739.719, 545.084 738.764 C 546.319 736.423, 546.253 725.275, 545 724.500 C 544.450 724.160, 544 722.973, 544 721.861 C 544 719.218, 532.782 708, 530.139 708 C 529.027 708, 527.840 707.550, 527.500 707 C 527.098 706.350, 503.990 706, 461.441 706 L 396 706 396 599.559 C 396 529.677, 395.657 492.906, 395 492.500 C 394.450 492.160, 393.998 490.671, 393.995 489.191 C 393.983 482.947, 381.908 472, 375.032 472 C 373.429 472, 371.840 471.550, 371.500 471 C 371.155 470.442, 366.509 470, 361 470 C 355.491 470, 350.845 470.442, 350.500 471 M 493 477.926 C 484.456 481.223, 480.476 483.872, 473.850 490.674 C 466.675 498.039, 463.620 503.199, 461.409 511.687 C 457.280 527.541, 463.040 545.823, 475.665 556.937 L 480.264 560.985 479.069 565.742 C 478.412 568.359, 477.483 572.075, 477.006 574 C 475.574 579.778, 472.917 592.168, 471.966 597.500 C 471.475 600.250, 470.570 604.300, 469.954 606.500 C 468.466 611.812, 466.989 619.436, 466.347 625.118 C 465.603 631.696, 468.701 637.507, 474.309 640.053 C 478.114 641.781, 481.153 641.958, 507.282 641.978 C 539.130 642.002, 540.931 641.714, 545.045 635.936 C 546.813 633.454, 547.396 631.278, 547.422 627.073 C 547.459 620.884, 546.664 616.612, 542.060 598.250 C 541.542 596.188, 540.386 591.125, 539.490 587 C 537.583 578.219, 536.227 572.693, 534.932 568.429 C 533 562.062, 533.694 559.724, 539.079 554.462 C 549.763 544.025, 552 538.439, 552 522.199 C 552 511.336, 551.854 510.552, 548.456 503.184 C 542.776 490.868, 534.495 483.612, 520.205 478.429 C 511.973 475.443, 500.010 475.222, 493 477.926 M 502 483 C 502 483.550, 500.200 484, 498 484 C 495.800 484, 494 484.450, 494 485 C 494 485.550, 493.368 486, 492.595 486 C 488.033 486, 476.191 495.262, 473.081 501.262 C 472.301 502.768, 471.288 504, 470.831 504 C 470.374 504, 470 505.350, 470 507 C 470 508.650, 469.550 510, 469 510 C 468.450 510, 468 512.250, 468 515 C 468 517.750, 467.550 520, 467 520 C 466.450 520, 466 521.323, 466 522.941 C 466 524.559, 466.450 526.160, 467 526.500 C 467.550 526.840, 468 529.116, 468 531.559 C 468 534.002, 468.450 536, 469 536 C 469.550 536, 470 536.900, 470 538 C 470 539.100, 470.450 540, 471 540 C 471.550 540, 472 540.694, 472 541.543 C 472 542.391, 475.700 546.746, 480.221 551.219 C 484.770 555.719, 487.897 559.534, 487.221 559.760 C 486.480 560.007, 486 562.100, 486 565.083 C 486 567.788, 485.550 570, 485 570 C 484.450 570, 484 571.800, 484 574 C 484 576.200, 483.550 578, 483 578 C 482.450 578, 482 580.250, 482 583 C 482 585.750, 481.550 588, 481 588 C 480.450 588, 480 589.800, 480 592 C 480 594.200, 479.550 596, 479 596 C 478.450 596, 478 598.250, 478 601 C 478 603.750, 477.550 606, 477 606 C 476.450 606, 476 607.800, 476 610 C 476 612.200, 475.550 614, 475 614 C 474.450 614, 474 616.250, 474 619 C 474 621.750, 473.550 624, 473 624 C 470.653 624, 472.166 629.232, 475.467 632.533 L 478.933 636 507 636 L 535.067 636 538.533 632.533 C 541.834 629.232, 543.347 624, 541 624 C 540.450 624, 540 621.750, 540 619 C 540 616.250, 539.550 614, 539 614 C 538.450 614, 538 612.200, 538 610 C 538 607.800, 537.550 606, 537 606 C 536.450 606, 536 604.200, 536 602 C 536 599.800, 535.550 598, 535 598 C 534.450 598, 534 596.200, 534 594 C 534 591.800, 533.550 590, 533 590 C 532.450 590, 532 587.750, 532 585 C 532 582.250, 531.550 580, 531 580 C 530.450 580, 530 578.200, 530 576 C 530 573.800, 529.550 572, 529 572 C 528.450 572, 528 570.200, 528 568 C 528 565.800, 527.550 564, 527 564 C 526.450 564, 526 562.276, 526 560.169 C 526 557.006, 526.477 556.091, 528.738 554.919 C 532.510 552.964, 540 545.387, 540 543.526 C 540 542.687, 540.450 542, 541 542 C 541.550 542, 542 541.100, 542 540 C 542 538.900, 542.450 538, 543 538 C 543.550 538, 544 536.650, 544 535 C 544 533.350, 544.450 532, 545 532 C 545.600 532, 546 528, 546 522 C 546 516, 545.600 512, 545 512 C 544.450 512, 544 510.650, 544 509 C 544 507.350, 543.550 506, 543 506 C 542.450 506, 542 505.199, 542 504.221 C 542 503.242, 541.100 501.793, 540 501 C 538.900 500.207, 538 498.962, 538 498.234 C 538 496.517, 533.483 492, 531.766 492 C 531.038 492, 529.793 491.100, 529 490 C 528.207 488.900, 526.758 488, 525.779 488 C 524.801 488, 524 487.550, 524 487 C 524 486.450, 523.100 486, 522 486 C 520.900 486, 520 485.550, 520 485 C 520 484.450, 518.002 484, 515.559 484 C 513.116 484, 510.840 483.550, 510.500 483 C 510.160 482.450, 508.109 482, 505.941 482 C 503.773 482, 502 482.450, 502 483" stroke="none" fill="#000000" fill-rule="evenodd"/>
</svg>