<svg width="575" height="575" xmlns="http://www.w3.org/2000/svg" version="1.1">

 <g>
  <title>Layer 1</title>
  <path id="svg_1" fill-rule="evenodd" fill="#bababa" d="m274.92266,19.62584c-0.294,0.294 -3.373,0.992 -6.844,1.551c-3.47,0.558 -6.792,1.319 -7.382,1.69c-0.59,0.371 -1.84,0.549 -2.777,0.395c-1.979,-0.325 -9.7,2.164 -14.78,4.766c-1.934,0.99 -7.282,3.71 -11.885,6.043c-11.446,5.803 -19.232,11.413 -27.985,20.167c-8.269,8.268 -20.594,25.376 -23.121,32.092c-0.675,1.794 -1.599,4.162 -2.055,5.262c-3.557,8.592 -6.581,19.817 -8.906,33.06c-0.62,3.533 -1.058,20.842 -1.049,41.5c0.015,37.207 0.564,42.511 4.729,45.69c2.398,1.83 228.114,1.83 230.512,0c4.165,-3.179 4.714,-8.483 4.729,-45.69c0.015,-35.753 -0.248,-39.327 -4.162,-56.56c-3.761,-16.556 -12.233,-33.893 -22.481,-46c-9.182,-10.848 -11.691,-13.5 -12.773,-13.5c-0.647,0 -2.727,-1.61 -4.623,-3.579c-4.419,-4.589 -19.415,-13.896 -28.439,-17.65c-9.943,-4.137 -13.986,-5.346 -22.507,-6.732c-4.125,-0.671 -8.534,-1.629 -9.797,-2.129c-2.423,-0.96 -27.488,-1.291 -28.404,-0.376m0.701,11.426c-1.1,0.495 -3.318,0.931 -4.929,0.97c-1.611,0.038 -4.311,0.487 -6,0.998c-1.689,0.51 -6.446,1.944 -10.571,3.187c-22.506,6.78 -45.647,24.703 -57.778,44.749c-8.459,13.978 -11.962,23.315 -15.433,41.136c-1.125,5.778 -2.272,72.328 -1.336,77.5l0.544,3l107.985,-0.259l107.984,-0.259l0.553,-2.241c0.959,-3.892 -0.187,-71.986 -1.308,-77.741c-5.121,-26.286 -13.717,-43.204 -30.4,-59.828c-11.728,-11.687 -20.059,-16.991 -40.301,-25.66c-2.194,-0.939 -6.244,-2.134 -9,-2.654c-2.755,-0.52 -7.035,-1.422 -9.51,-2.004c-5.93,-1.396 -27.95,-2.041 -30.5,-0.894m10,36.04c-1.1,0.473 -3.906,0.891 -6.236,0.93c-6.776,0.112 -13.098,1.974 -23.264,6.85c-7.831,3.757 -11.039,6.055 -18.265,13.084c-9.815,9.549 -13.911,15.913 -17.786,27.636c-4.687,14.179 -4.949,16.433 -4.949,42.56l0,25.031l2.455,2.454l2.454,2.455l68.091,0l68.091,0l2.454,-2.455l2.455,-2.454l0,-25.031c0,-24.193 -0.431,-28.906 -3.527,-38.56c-0.706,-2.2 -1.579,-5.35 -1.94,-7c-2.638,-12.05 -26.715,-36.546 -40.024,-40.722c-7.222,-2.266 -10.453,-2.952 -17.509,-3.72c-4.125,-0.449 -8.175,-1.064 -9,-1.367c-0.825,-0.303 -2.4,-0.164 -3.5,0.309m-0.5,11.011c-1.375,0.434 -3.983,0.834 -5.796,0.889c-4.603,0.14 -19.123,4.964 -22.56,7.496c-5.718,4.213 -16.904,15.21 -19.739,19.406c-9.079,13.435 -10.823,21.37 -10.869,49.448l-0.036,21.75l62,0l62,0l-0.036,-21.75c-0.024,-15.141 -0.457,-23.421 -1.424,-27.25c-2.631,-10.425 -2.711,-10.618 -9.315,-22.569c-2.318,-4.195 -12.888,-14.141 -19.861,-18.69c-6.822,-4.45 -11.377,-6.009 -22.864,-7.825c-3.3,-0.522 -6.675,-1.117 -7.5,-1.322c-0.825,-0.205 -2.625,-0.018 -4,0.417m-73,148.989c-1.975,1.975 -2,3.333 -2,110c0,106.667 0.025,108.025 2,110c1.964,1.964 3.333,2 77,2c73.667,0 75.036,-0.036 77,-2c1.975,-1.975 2,-3.333 2,-110c0,-106.667 -0.025,-108.025 -2,-110c-1.964,-1.964 -3.333,-2 -77,-2c-73.667,0 -75.036,0.036 -77,2m192,-1.013c-7.238,0.978 -11.519,2.429 -16.087,5.452c-4.165,2.756 -8.913,8.459 -8.913,10.705c0,0.801 -0.481,1.937 -1.069,2.525c-0.706,0.706 -0.855,4.597 -0.438,11.45c0.347,5.71 0.955,67.306 1.35,136.881c0.489,86.008 1.066,127.659 1.804,130.122c8.285,27.664 39.358,40.886 64.249,27.338c6.954,-3.785 14.974,-12.599 19.193,-21.093l3.411,-6.867l0,-131c0,-139.998 0.281,-131.729 -4.85,-142.5c-3.11,-6.528 -11.488,-14.535 -18.857,-18.021c-3.461,-1.638 -7.11,-2.978 -8.109,-2.978c-0.998,-0.001 -2.573,-0.393 -3.5,-0.872c-2.403,-1.242 -21.662,-2.023 -28.184,-1.142m-274.198,3.518c-14.533,3.176 -24.266,15.905 -22.3,29.164c0.394,2.657 1.04,60.181 1.436,127.831c0.468,80.085 1.084,124.396 1.765,127c2.726,10.42 5.96,16.134 13.297,23.494c8.035,8.06 16.388,12.309 27.291,13.882c11.494,1.658 149.793,1.452 159.22,-0.238c17.771,-3.185 31.232,-16.054 35.391,-33.831c4.909,-20.984 -7.916,-43.454 -29.181,-51.125c-2.241,-0.809 -20.869,-1.317 -61.221,-1.672l-58,-0.51l-0.554,-98.5c-0.384,-68.104 -0.898,-99.58 -1.667,-102c-0.612,-1.925 -1.591,-5.038 -2.174,-6.918c-1.323,-4.258 -5.314,-10.357 -9.55,-14.593c-3.747,-3.747 -13.281,-8.924 -19.055,-10.346c-2.2,-0.541 -5.852,-1.47 -8.116,-2.064c-5.309,-1.392 -19.287,-1.168 -26.582,0.426m91.662,7.738c-0.264,0.691 -0.364,46.032 -0.222,100.757l0.258,99.5l67.5,0l67.5,0l0,-100.5l0,-100.5l-67.279,-0.257c-53.292,-0.204 -67.378,0.004 -67.757,1m178.893,8.144c-4.911,2.729 -5.357,3.617 -5.357,10.676c0,3.751 0.45,7.097 1,7.437c0.658,0.407 1,43.328 1,125.512c0,91.22 0.308,125.648 1.141,127.691c3.144,7.712 4.156,9.289 9.045,14.102c3.149,3.1 6.168,5.195 7.487,5.195c1.215,0 2.487,0.45 2.827,1c0.34,0.55 2.815,1 5.5,1c2.685,0 5.16,-0.45 5.5,-1c0.34,-0.55 1.422,-1 2.405,-1c4.722,0 16.095,-9.851 16.095,-13.941c0,-0.912 0.563,-2.221 1.25,-2.909c0.987,-0.987 1.25,-28.023 1.25,-128.45c0,-142.933 0.696,-130.417 -7.689,-138.202c-5.054,-4.693 -8.038,-6.498 -10.738,-6.498c-1.075,0 -2.233,-0.45 -2.573,-1c-0.89,-1.441 -25.462,-1.103 -28.143,0.387m-266.857,1.613c-0.34,0.55 -1.461,1 -2.491,1c-3.001,0 -6.009,5.179 -6.009,10.345c0,2.495 0.45,4.815 1,5.155c0.658,0.407 1,42.324 1,122.5c0,80.176 0.342,122.093 1,122.5c0.55,0.34 1,1.647 1,2.905c0,3.527 2.584,7.916 7.632,12.963c5.255,5.255 9.447,7.632 13.463,7.632c1.533,0 3.065,0.45 3.405,1c0.403,0.653 27.324,1 77.5,1c50.176,0 77.097,-0.347 77.5,-1c0.34,-0.55 1.498,-1 2.573,-1c4.269,0 12.205,-6.533 14.577,-12c0.835,-1.925 1.93,-4.281 2.434,-5.236c1.235,-2.341 1.169,-13.489 -0.084,-14.264c-0.55,-0.34 -1,-1.527 -1,-2.639c0,-2.643 -11.218,-13.861 -13.861,-13.861c-1.112,0 -2.299,-0.45 -2.639,-1c-0.402,-0.65 -23.51,-1 -66.059,-1l-65.441,0l0,-106.441c0,-69.882 -0.343,-106.653 -1,-107.059c-0.55,-0.34 -1.002,-1.829 -1.005,-3.309c-0.012,-6.244 -12.087,-17.191 -18.963,-17.191c-1.603,0 -3.192,-0.45 -3.532,-1c-0.345,-0.558 -4.991,-1 -10.5,-1c-5.509,0 -10.155,0.442 -10.5,1m142.5,6.926c-8.544,3.297 -12.524,5.946 -19.15,12.748c-7.175,7.365 -10.23,12.525 -12.441,21.013c-4.129,15.854 1.631,34.136 14.256,45.25l4.599,4.048l-1.195,4.757c-0.657,2.617 -1.586,6.333 -2.063,8.258c-1.432,5.778 -4.089,18.168 -5.04,23.5c-0.491,2.75 -1.396,6.8 -2.012,9c-1.488,5.312 -2.965,12.936 -3.607,18.618c-0.744,6.578 2.354,12.389 7.962,14.935c3.805,1.728 6.844,1.905 32.973,1.925c31.848,0.024 33.649,-0.264 37.763,-6.042c1.768,-2.482 2.351,-4.658 2.377,-8.863c0.037,-6.189 -0.758,-10.461 -5.362,-28.823c-0.518,-2.062 -1.674,-7.125 -2.57,-11.25c-1.907,-8.781 -3.263,-14.307 -4.558,-18.571c-1.932,-6.367 -1.238,-8.705 4.147,-13.967c10.684,-10.437 12.921,-16.023 12.921,-32.263c0,-10.863 -0.146,-11.647 -3.544,-19.015c-5.68,-12.316 -13.961,-19.572 -28.251,-24.755c-8.232,-2.986 -20.195,-3.207 -27.205,-0.503m9,5.074c0,0.55 -1.8,1 -4,1c-2.2,0 -4,0.45 -4,1c0,0.55 -0.632,1 -1.405,1c-4.562,0 -16.404,9.262 -19.514,15.262c-0.78,1.506 -1.793,2.738 -2.25,2.738c-0.457,0 -0.831,1.35 -0.831,3c0,1.65 -0.45,3 -1,3c-0.55,0 -1,2.25 -1,5c0,2.75 -0.45,5 -1,5c-0.55,0 -1,1.323 -1,2.941c0,1.618 0.45,3.219 1,3.559c0.55,0.34 1,2.616 1,5.059c0,2.443 0.45,4.441 1,4.441c0.55,0 1,0.9 1,2c0,1.1 0.45,2 1,2c0.55,0 1,0.694 1,1.543c0,0.848 3.7,5.203 8.221,9.676c4.549,4.5 7.676,8.315 7,8.541c-0.741,0.247 -1.221,2.34 -1.221,5.323c0,2.705 -0.45,4.917 -1,4.917c-0.55,0 -1,1.8 -1,4c0,2.2 -0.45,4 -1,4c-0.55,0 -1,2.25 -1,5c0,2.75 -0.45,5 -1,5c-0.55,0 -1,1.8 -1,4c0,2.2 -0.45,4 -1,4c-0.55,0 -1,2.25 -1,5c0,2.75 -0.45,5 -1,5c-0.55,0 -1,1.8 -1,4c0,2.2 -0.45,4 -1,4c-0.55,0 -1,2.25 -1,5c0,2.75 -0.45,5 -1,5c-2.347,0 -0.834,5.232 2.467,8.533l3.466,3.467l28.067,0l28.067,0l3.466,-3.467c3.301,-3.301 4.814,-8.533 2.467,-8.533c-0.55,0 -1,-2.25 -1,-5c0,-2.75 -0.45,-5 -1,-5c-0.55,0 -1,-1.8 -1,-4c0,-2.2 -0.45,-4 -1,-4c-0.55,0 -1,-1.8 -1,-4c0,-2.2 -0.45,-4 -1,-4c-0.55,0 -1,-1.8 -1,-4c0,-2.2 -0.45,-4 -1,-4c-0.55,0 -1,-2.25 -1,-5c0,-2.75 -0.45,-5 -1,-5c-0.55,0 -1,-1.8 -1,-4c0,-2.2 -0.45,-4 -1,-4c-0.55,0 -1,-1.8 -1,-4c0,-2.2 -0.45,-4 -1,-4c-0.55,0 -1,-1.724 -1,-3.831c0,-3.163 0.477,-4.078 2.738,-5.25c3.772,-1.955 11.262,-9.532 11.262,-11.393c0,-0.839 0.45,-1.526 1,-1.526c0.55,0 1,-0.9 1,-2c0,-1.1 0.45,-2 1,-2c0.55,0 1,-1.35 1,-3c0,-1.65 0.45,-3 1,-3c0.6,0 1,-4 1,-10c0,-6 -0.4,-10 -1,-10c-0.55,0 -1,-1.35 -1,-3c0,-1.65 -0.45,-3 -1,-3c-0.55,0 -1,-0.801 -1,-1.779c0,-0.979 -0.9,-2.428 -2,-3.221c-1.1,-0.793 -2,-2.038 -2,-2.766c0,-1.717 -4.517,-6.234 -6.234,-6.234c-0.728,0 -1.973,-0.9 -2.766,-2c-0.793,-1.1 -2.242,-2 -3.221,-2c-0.978,0 -1.779,-0.45 -1.779,-1c0,-0.55 -0.9,-1 -2,-1c-1.1,0 -2,-0.45 -2,-1c0,-0.55 -1.998,-1 -4.441,-1c-2.443,0 -4.719,-0.45 -5.059,-1c-0.34,-0.55 -2.391,-1 -4.559,-1c-2.168,0 -3.941,0.45 -3.941,1"/>
 </g>
</svg>